<svg width="220" height="216" viewBox="0 0 220 216" fill="none" xmlns="http://www.w3.org/2000/svg">
<path fill-rule="evenodd" clip-rule="evenodd" d="M53.4011 100.015C53.4011 97.1416 52.5071 94.3581 50.9886 91.9277C50.8001 91.6261 50.6021 91.33 50.395 91.0398L50.3131 90.925C47.2851 86.6716 47.1736 80.9646 50.3179 76.7964C51.1459 75.6988 51.9987 74.6243 52.8719 73.5705C55.262 70.686 59.3926 69.9694 62.6331 71.8488C66.0488 73.8296 70.4379 73.507 73.6047 71.1573C73.6396 71.1315 73.6743 71.1054 73.7088 71.079C73.7415 71.0541 73.7743 71.0291 73.807 71.0041C73.9657 70.883 74.1243 70.7616 74.2826 70.6398C74.3981 70.547 74.5145 70.4557 74.6317 70.3657C76.9977 68.5485 78.7407 66.1265 79.4833 63.3818C79.5254 63.2262 79.5643 63.0696 79.5999 62.9119C79.8427 61.8368 79.9328 60.7159 79.8483 59.5654C79.5341 55.2887 81.9289 51.2134 85.9541 49.7347C87.3142 49.2351 88.6884 48.7794 90.0727 48.362C93.9046 47.2067 97.9743 48.9865 99.8013 52.5474C99.8697 52.6807 99.9379 52.8142 100.006 52.9478C101.143 55.1847 103.099 56.8042 105.387 57.6892C106.015 57.932 106.668 58.1195 107.335 58.2493C107.34 58.2502 107.344 58.2511 107.349 58.252C108.08 58.3932 108.828 58.4654 109.581 58.4654C110.333 58.4654 111.082 58.3932 111.812 58.2521C111.817 58.2512 111.821 58.2503 111.826 58.2494C112.489 58.1205 113.137 57.9348 113.76 57.6946C116.054 56.811 118.015 55.1903 119.155 52.9494C119.222 52.8163 119.29 52.6833 119.358 52.5505C121.186 48.9886 125.256 47.2067 129.089 48.3622C130.471 48.779 131.844 49.2341 133.202 49.733C137.231 51.2124 139.627 55.2909 139.313 59.5707C139.228 60.7204 139.318 61.8405 139.561 62.9147C139.596 63.072 139.635 63.2284 139.677 63.3837C140.419 66.1268 142.161 68.5471 144.526 70.3633C144.645 70.4541 144.762 70.5462 144.878 70.6398C145.037 70.7616 145.196 70.883 145.355 71.0041C145.387 71.0287 145.419 71.0533 145.451 71.0779C145.486 71.1046 145.522 71.131 145.557 71.1571C148.724 73.5048 153.112 73.8292 156.527 71.8487C159.768 69.9696 163.898 70.686 166.288 73.5702C167.175 74.6399 168.041 75.7309 168.88 76.8458C172.005 80.9936 171.916 86.6573 168.887 90.8754L168.769 91.0399C168.56 91.3299 168.36 91.6259 168.171 91.9275C166.645 94.3539 165.76 97.1404 165.759 100.016L165.752 138.053C165.752 157.789 140.724 167.275 109.619 167.384H109.542C78.4372 167.275 53.4012 157.789 53.4012 138.053L53.4011 100.015ZM21.4012 138.053L21.4011 104.923C13.6276 90.5779 13.8183 72.0452 24.7713 57.5254C25.9146 56.0098 27.0718 54.5531 28.2315 53.1536C34.6333 45.4274 43.3849 40.7248 52.6352 39.2837C57.1164 30.6831 64.6516 23.4695 74.9195 19.6975C76.9168 18.9637 78.893 18.3099 80.8352 17.7243C90.7604 14.7318 100.911 15.756 109.582 19.8545C118.249 15.7573 128.397 14.7311 138.325 17.7242C140.265 18.3091 142.239 18.962 144.234 19.6947C154.506 23.4671 162.042 30.6821 166.524 39.2835C175.774 40.7243 184.525 45.4261 190.927 53.1506C192.104 54.571 193.279 56.0506 194.439 57.5913C205.294 72 205.639 90.5255 197.758 104.961L197.752 138.053C197.752 138.055 197.752 138.057 197.752 138.059C197.749 164.687 179.754 181.008 163.157 188.946C147.099 196.627 127.795 199.32 109.731 199.384L109.675 199.384H109.486L109.43 199.384C91.3661 199.32 72.0614 196.627 56.0027 188.948C39.4056 181.011 21.4013 164.69 21.4012 138.053C21.4012 138.053 21.4012 138.053 21.4012 138.053Z" fill="#8529E1"/>
</svg>
