<svg width="188" height="184" viewBox="0 0 188 184" fill="none" xmlns="http://www.w3.org/2000/svg">
<path fill-rule="evenodd" clip-rule="evenodd" d="M93.5421 151.378C62.4368 151.269 37.4009 141.783 37.4009 122.047L37.4007 84.0092C37.4007 80.7793 36.271 77.663 34.3946 75.034L34.3128 74.9192C31.2847 70.6658 31.1732 64.9588 34.3175 60.7906C35.1455 59.693 35.9984 58.6185 36.8715 57.5647C39.2616 54.6802 43.3922 53.9636 46.6328 55.843C50.086 57.8456 54.5342 57.4939 57.7085 55.0732C57.8999 54.9272 58.0913 54.7809 58.2822 54.634C58.3978 54.5412 58.5142 54.4499 58.6313 54.3599C62.0464 51.7369 64.1634 47.8541 63.8479 43.5596C63.5337 39.2829 65.9285 35.2076 69.9537 33.7289C71.3138 33.2293 72.688 32.7736 74.0724 32.3562C77.9042 31.2009 81.9739 32.9807 83.8009 36.5416C83.8693 36.6749 83.9375 36.8084 84.0054 36.942C85.798 40.4678 89.6249 42.4596 93.5803 42.4596C97.535 42.4596 101.362 40.4689 103.154 36.9436C103.222 36.8105 103.29 36.6775 103.358 36.5447C105.185 32.9828 109.255 31.2009 113.088 32.3564C114.471 32.7732 115.844 33.2283 117.202 33.7272C121.23 35.2066 123.627 39.2851 123.312 43.5649C122.997 47.8571 125.112 51.7365 128.526 54.3575C128.644 54.4483 128.762 54.5404 128.878 54.634C129.069 54.7805 129.26 54.9265 129.451 55.0721C132.626 57.4915 137.074 57.8454 140.527 55.8429C143.767 53.9638 147.898 54.6802 150.288 57.5644C151.175 58.6341 152.04 59.7251 152.88 60.84C156.005 64.9878 155.916 70.6515 152.887 74.8696L152.768 75.0341C150.878 77.6568 149.759 80.7772 149.759 84.01L149.751 122.047C149.751 141.783 124.724 151.269 93.6185 151.378H93.5421ZM165.751 122.047C165.751 122.048 165.751 122.049 165.751 122.05C165.75 140.298 153.624 152.111 140.253 158.507C127.151 164.773 110.483 167.319 93.6746 167.378L93.6466 167.378H93.5141L93.486 167.378C76.6776 167.319 60.0076 164.773 46.9046 158.507C33.5325 152.113 21.4009 140.299 21.4009 122.047L21.4007 84.3716C21.3921 84.3585 21.3824 84.3443 21.3716 84.3293L21.2784 84.1985C14.4999 74.677 13.8946 61.2958 21.5442 51.1551C22.5299 49.8485 23.5349 48.5829 24.5513 47.3562C30.4063 40.29 39.5698 37.4588 48.0512 39.3976C49.2376 30.4946 54.9893 22.1808 64.4364 18.7103C66.1151 18.0936 67.7903 17.5389 69.4536 17.0374C78.2955 14.3715 87.4568 17.001 93.5808 23.1222C99.7031 17.0039 108.861 14.3709 117.706 17.0374C119.368 17.5383 121.041 18.0923 122.718 18.7081C132.169 22.1789 137.921 30.4943 139.108 39.3977C147.589 37.459 156.752 40.2898 162.607 47.3546C163.639 48.5996 164.659 49.885 165.66 51.2127C173.243 61.2792 172.752 74.637 165.883 84.2025L165.759 84.3751L165.751 122.047Z" fill="#8529E1"/>
</svg>
